#N canvas 1003 170 728 772 10;
#X obj 161 323 dac~;
#N canvas 502 337 568 360 randombass 0;
#X obj 143 55 tgl 15 0 empty empty empty 17 7 0 10 -262144 -1 -1 1
1;
#X obj 141 108 metro \$1;
#X obj 88 207 osc~ 440;
#X obj 87 231 *~ 0.4;
#X floatatom 88 187 5 0 0 0 - - -;
#X floatatom 195 61 5 0 0 0 - - -;
#X text 233 65 <-- Noise | 0-3 noisy | > 3 rhythm of next note;
#X floatatom 186 215 5 0 0 0 - - -;
#X obj 86 257 outlet~;
#X obj 88 143 random 150;
#X obj 88 164 + 50;
#X obj 201 9 loadbang;
#X msg 166 32 1;
#X connect 0 0 1 0;
#X connect 0 0 5 0;
#X connect 1 0 9 0;
#X connect 2 0 3 0;
#X connect 3 0 8 0;
#X connect 4 0 2 0;
#X connect 5 0 1 1;
#X connect 7 0 3 1;
#X connect 9 0 10 0;
#X connect 10 0 4 0;
#X connect 11 0 12 0;
#X connect 12 0 0 0;
#X restore 485 60 pd randombass;
#N canvas 625 403 450 300 tremolo 0;
#X obj 142 101 osc~;
#X obj 143 126 +~ 1;
#X obj 142 156 /~ 0.5;
#X obj 61 50 inlet~;
#X obj 106 179 *~;
#X obj 106 214 clip~ -1 1;
#X obj 220 26 inlet;
#X msg 143 50 20;
#X obj 143 25 loadbang;
#X obj 105 244 outlet~;
#X floatatom 184 75 5 0 0 0 - - -;
#X connect 0 0 1 0;
#X connect 1 0 2 0;
#X connect 2 0 4 1;
#X connect 3 0 4 0;
#X connect 4 0 5 0;
#X connect 5 0 9 0;
#X connect 6 0 10 0;
#X connect 7 0 10 0;
#X connect 8 0 7 0;
#X connect 10 0 0 0;
#X restore 487 89 pd tremolo;
#N canvas 1305 608 450 300 squaresynth 0;
#X obj 55 160 expr~ $v1 > 0.5;
#X obj 56 126 phasor~ 70;
#X obj 56 191 outlet~;
#X obj 54 93 inlet;
#X connect 0 0 2 0;
#X connect 1 0 0 0;
#X connect 3 0 1 0;
#X restore 487 31 pd squaresynth;
#N canvas 386 381 579 467 GOL_RECEIVER 1;
#X obj 24 29 udpreceive 8338;
#X obj 24 54 unpackOSC;
#X floatatom 23 109 5 0 0 0 - - -;
#X floatatom 70 108 5 0 0 0 - - -;
#X floatatom 121 111 5 0 0 0 - - -;
#X obj 23 141 s numborn;
#X obj 70 165 s numdied;
#X obj 121 139 s population;
#X floatatom 277 108 5 0 0 0 - - -;
#X obj 277 138 s fr;
#X obj 169 106 s born;
#X obj 221 106 s died;
#X obj 23 77 routeOSC /numborn /numdied /population /b /d /fr;
#X connect 0 0 1 0;
#X connect 1 0 12 0;
#X connect 2 0 5 0;
#X connect 3 0 6 0;
#X connect 4 0 7 0;
#X connect 8 0 9 0;
#X connect 12 0 2 0;
#X connect 12 1 3 0;
#X connect 12 2 4 0;
#X connect 12 3 10 0;
#X connect 12 4 11 0;
#X connect 12 5 8 0;
#X restore 55 55 pd GOL_RECEIVER;
#X msg 231 38 \; pd dsp 0;
#X msg 313 41 \; pd dsp 1;
#N canvas 600 67 482 484 DEATH_CLICKS 0;
#N canvas 740 351 450 300 cd 0;
#X obj 117 -132 noise~;
#N canvas 311 310 513 422 adsr 0;
#X obj 16 270 vline~;
#X msg 18 234 1 \$2 \, \$4 \$3 \$2;
#X obj 18 202 pack f f f f;
#X obj 13 51 vsl 28 100 0 300 0 0 empty empty A 0 109 0 10 -262144
-1 -1 0 1;
#X obj 44 51 vsl 28 100 0 500 0 0 empty empty D 0 109 0 10 -262144
-1 -1 0 1;
#X obj 75 51 vsl 28 100 0 1 0 0 empty empty S 0 109 0 10 -262144 -1
-1 0 1;
#X obj 106 51 vsl 28 100 0 1000 0 0 empty empty R 0 109 0 10 -262144
-1 -1 0 1;
#X floatatom 11 179 5 0 0 0 - - -;
#X floatatom 54 173 5 0 0 0 - - -;
#X floatatom 98 175 5 0 0 0 - - -;
#X floatatom 142 175 5 0 0 0 - - -;
#X obj 136 219 pack f f;
#X obj 214 98 inlet;
#X obj 214 195 delay \$1;
#X obj 214 152 bng 15 250 50 0 empty empty empty 17 7 0 10 -262144
-1 -1;
#X obj 214 123 t b b;
#X obj 241 153 bng 15 250 50 0 empty empty empty 17 7 0 10 -262144
-1 -1;
#X floatatom 325 168 5 0 0 0 - - -;
#X text 15 225 comment;
#X obj 135 292 outlet~;
#X obj 20 327 metro 100;
#X obj 15 357 snapshot~;
#X floatatom 60 383 5 0 0 0 - - -;
#X obj 31 306 tgl 15 0 empty empty empty 17 7 0 10 -262144 -1 -1 0
1;
#X obj 16 33 hsl 116 13 0 800 0 0 empty empty s_length 70 -6 0 10 -262144
-1 -1 0 1;
#X text 169 76 bang to start note;
#X obj 209 11 loadbang;
#X text 158 65 comment;
#X msg 208 35 1.05;
#X msg 262 40 7.913;
#X connect 0 0 19 0;
#X connect 0 0 21 0;
#X connect 1 0 0 0;
#X connect 2 0 1 0;
#X connect 3 0 7 0;
#X connect 4 0 8 0;
#X connect 5 0 9 0;
#X connect 6 0 10 0;
#X connect 7 0 2 1;
#X connect 8 0 2 2;
#X connect 9 0 2 3;
#X connect 10 0 11 1;
#X connect 11 0 0 0;
#X connect 12 0 15 0;
#X connect 12 0 17 0;
#X connect 12 0 2 0;
#X connect 13 0 11 0;
#X connect 14 0 13 0;
#X connect 15 0 14 0;
#X connect 15 1 16 0;
#X connect 16 0 17 0;
#X connect 17 0 13 1;
#X connect 20 0 21 0;
#X connect 21 0 22 0;
#X connect 23 0 20 0;
#X connect 24 0 17 0;
#X connect 26 0 28 0;
#X connect 26 0 29 0;
#X connect 28 0 8 0;
#X connect 29 0 17 0;
#X coords 0 -1 1 1 127 155 1 10 10;
#X restore 199 -155 pd adsr;
#X obj 132 -78 *~;
#X obj 18 23 bng 15 250 50 0 empty empty empty 17 7 0 10 -262144 -1
-1;
#X obj 106 17 outlet~;
#X obj 15 -32 inlet;
#X obj 106 -5 clip~ -0.3 0.3;
#X connect 0 0 2 0;
#X connect 1 0 2 1;
#X connect 2 0 6 0;
#X connect 3 0 1 0;
#X connect 5 0 3 0;
#X connect 6 0 4 0;
#X coords 0 -1 1 1 30 30 1 10 10;
#X restore 31 245 pd cd;
#X obj 32 94 unpack f f;
#X obj 32 121 % 3;
#N canvas 1347 292 450 394 pan 0;
#X obj 37 30 inlet~;
#X obj 248 40 inlet;
#X obj 45 232 outlet~;
#X obj 99 238 outlet~;
#X text 51 265 left;
#X text 105 265 right;
#X text 152 218 (C) Copyright 2004 Hans-Christoph Steiner;
#X text 256 234 released under the GNU GPL;
#X obj 45 211 pan_core~;
#X obj 323 36 loadbang;
#X msg 323 56 0.5;
#X obj 53 176 expr cos($f1 * 3.14159 / 2);
#X obj 248 176 expr sin($f1 * 3.14159 / 2);
#X text 24 9 [equal_power_pan~];
#X obj 248 116 clip 0 1;
#X connect 0 0 8 0;
#X connect 1 0 14 0;
#X connect 8 0 2 0;
#X connect 8 1 3 0;
#X connect 9 0 10 0;
#X connect 10 0 14 0;
#X connect 11 0 8 1;
#X connect 12 0 8 2;
#X connect 14 0 11 0;
#X connect 14 0 12 0;
#X restore 30 286 pd pan;
#X obj 78 250 maxlib/scale 0 250 0 0.99 0;
#X obj 31 222 sel 1;
#X obj 32 148 sel 0 1 2;
#X obj 32 200 < 1;
#X obj 32 72 r died;
#X obj 32 176 random 500;
#X text 29 188 comment;
#X obj 27 322 outlet~;
#X obj 92 319 outlet~;
#X connect 0 0 3 0;
#X connect 1 0 2 0;
#X connect 1 0 4 0;
#X connect 2 0 6 0;
#X connect 3 0 11 0;
#X connect 3 1 12 0;
#X connect 4 0 3 1;
#X connect 5 0 0 0;
#X connect 6 0 9 0;
#X connect 7 0 5 0;
#X connect 8 0 1 0;
#X connect 9 0 7 0;
#X restore 56 103 pd DEATH_CLICKS;
#N canvas 646 91 648 733 BIRTH_NOTES 1;
#N canvas 347 327 513 422 adsr 0;
#X obj 16 270 vline~;
#X msg 18 234 1 \$2 \, \$4 \$3 \$2;
#X obj 18 202 pack f f f f;
#X obj 13 51 vsl 28 100 0 300 0 0 empty empty A 0 109 0 10 -262144
-1 -1 700 1;
#X obj 44 51 vsl 28 100 0 500 0 0 empty empty D 0 109 0 10 -262144
-1 -1 1700 1;
#X obj 75 51 vsl 28 100 0 1 0 0 empty empty S 0 109 0 10 -262144 -1
-1 594 1;
#X obj 106 51 vsl 28 100 0 1000 0 0 empty empty R 0 109 0 10 -262144
-1 -1 300 1;
#X floatatom 11 179 5 0 0 0 - - -;
#X floatatom 54 173 5 0 0 0 - - -;
#X floatatom 98 175 5 0 0 0 - - -;
#X floatatom 142 175 5 0 0 0 - - -;
#X obj 136 219 pack f f;
#X obj 214 98 inlet;
#X obj 214 195 delay \$1;
#X obj 214 152 bng 15 250 50 0 empty empty empty 17 7 0 10 -262144
-1 -1;
#X obj 214 123 t b b;
#X obj 241 153 bng 15 250 50 0 empty empty empty 17 7 0 10 -262144
-1 -1;
#X floatatom 292 168 5 0 0 0 - - -;
#X text 15 225 comment;
#X obj 135 292 outlet~;
#X obj 20 327 metro 100;
#X obj 15 357 snapshot~;
#X floatatom 60 383 5 0 0 0 - - -;
#X obj 31 306 tgl 15 0 empty empty empty 17 7 0 10 -262144 -1 -1 0
1;
#X obj 16 33 hsl 116 13 0 800 0 0 empty empty s_length 70 -6 0 10 -262144
-1 -1 2799 1;
#X text 158 65 comment;
#X text 155 70 bang to start note;
#X obj 353 48 loadbang;
#X msg 444 91 194.7;
#X msg 401 93 30.3;
#X msg 370 93 0.06;
#X msg 328 94 85.85;
#X msg 288 92 21.21;
#X connect 0 0 19 0;
#X connect 0 0 21 0;
#X connect 1 0 0 0;
#X connect 2 0 1 0;
#X connect 3 0 7 0;
#X connect 4 0 8 0;
#X connect 5 0 9 0;
#X connect 6 0 10 0;
#X connect 7 0 2 1;
#X connect 8 0 2 2;
#X connect 9 0 2 3;
#X connect 10 0 11 1;
#X connect 11 0 0 0;
#X connect 12 0 15 0;
#X connect 12 0 17 0;
#X connect 12 0 2 0;
#X connect 13 0 11 0;
#X connect 14 0 13 0;
#X connect 15 0 14 0;
#X connect 15 1 16 0;
#X connect 16 0 17 0;
#X connect 17 0 13 1;
#X connect 20 0 21 0;
#X connect 21 0 22 0;
#X connect 23 0 20 0;
#X connect 24 0 17 0;
#X connect 27 0 28 0;
#X connect 27 0 29 0;
#X connect 27 0 30 0;
#X connect 27 0 31 0;
#X connect 27 0 32 0;
#X connect 28 0 17 0;
#X connect 28 0 24 0;
#X connect 29 0 10 0;
#X connect 29 0 6 0;
#X connect 30 0 9 0;
#X connect 30 0 5 0;
#X connect 31 0 8 0;
#X connect 31 0 4 0;
#X connect 32 0 7 0;
#X connect 32 0 3 0;
#X coords 0 -1 1 1 127 155 1 10 10;
#X restore 43 404 pd adsr;
#N canvas 707 174 450 300 notestable 0;
#X obj 48 40 table notes;
#X msg 168 103 \; notes resize 5;
#X msg 20 103 \; notes bounds 0 9 4 0;
#X obj 211 55 loadbang;
#X msg 289 106 \; notes 2 5 0 7 9;
#X connect 3 0 4 0;
#X connect 3 0 1 0;
#X connect 3 0 2 0;
#X restore 280 70 pd notestable;
#X obj 222 387 mtof;
#X obj 222 411 osc~;
#X obj 222 434 *~;
#X floatatom 187 264 5 0 0 0 - - -;
#X obj 178 33 r born;
#X obj 178 59 unpack f f;
#X obj 178 105 sel 0;
#X obj 235 106 sel 1;
#X obj 235 84 % 2;
#X obj 177 178 spigot;
#X obj 193 155 tgl 15 0 empty empty empty 17 7 0 10 -262144 -1 -1 1
1;
#X msg 178 127 1;
#X msg 209 128 0;
#X obj 178 83 % 4;
#X obj 186 204 % 3;
#X obj 187 244 expr notes[$f1];
#X floatatom 186 224 5 0 0 0 - - -;
#X floatatom 148 250 5 0 0 0 - - -;
#X obj 149 226 int;
#X obj 149 203 / 24;
#X obj 148 272 * 12;
#X obj 225 286 +;
#X obj 107 283 bng 15 250 50 0 empty empty empty 17 7 0 10 -262144
-1 -1;
#X obj 84 329 < 1;
#X obj 84 375 bng 15 250 50 0 empty empty empty 17 7 0 10 -262144 -1
-1;
#X obj 84 352 sel 1;
#X msg 255 129 1;
#X msg 290 128 0;
#X obj 277 159 tgl 15 0 empty empty empty 17 7 0 10 -262144 -1 -1 0
1;
#X obj 250 180 spigot;
#X obj 301 219 / 24;
#X obj 301 242 int;
#X obj 301 265 * 12;
#X obj 347 220 % 3;
#X obj 348 242 expr notes[4 - $f1];
#X floatatom 352 270 5 0 0 0 - - -;
#X obj 319 299 +;
#X obj 412 274 bng 15 250 50 0 empty empty empty 17 7 0 10 -262144
-1 -1;
#X obj 414 319 < 1;
#X obj 414 340 sel 1;
#X obj 414 390 bng 15 250 50 0 empty empty empty 17 7 0 10 -262144
-1 -1;
#N canvas 347 327 513 422 adsr 0;
#X obj 16 270 vline~;
#X msg 18 234 1 \$2 \, \$4 \$3 \$2;
#X obj 18 202 pack f f f f;
#X obj 13 51 vsl 28 100 0 300 0 0 empty empty A 0 109 0 10 -262144
-1 -1 700 1;
#X obj 44 51 vsl 28 100 0 500 0 0 empty empty D 0 109 0 10 -262144
-1 -1 1700 1;
#X obj 75 51 vsl 28 100 0 1 0 0 empty empty S 0 109 0 10 -262144 -1
-1 594 1;
#X obj 106 51 vsl 28 100 0 1000 0 0 empty empty R 0 109 0 10 -262144
-1 -1 300 1;
#X floatatom 11 179 5 0 0 0 - - -;
#X floatatom 54 173 5 0 0 0 - - -;
#X floatatom 98 175 5 0 0 0 - - -;
#X floatatom 142 175 5 0 0 0 - - -;
#X obj 136 219 pack f f;
#X obj 214 98 inlet;
#X obj 214 195 delay \$1;
#X obj 214 152 bng 15 250 50 0 empty empty empty 17 7 0 10 -262144
-1 -1;
#X obj 214 123 t b b;
#X obj 241 153 bng 15 250 50 0 empty empty empty 17 7 0 10 -262144
-1 -1;
#X floatatom 292 168 5 0 0 0 - - -;
#X text 15 225 comment;
#X obj 135 292 outlet~;
#X obj 20 327 metro 100;
#X obj 15 357 snapshot~;
#X floatatom 60 383 5 0 0 0 - - -;
#X obj 31 306 tgl 15 0 empty empty empty 17 7 0 10 -262144 -1 -1 0
1;
#X obj 16 33 hsl 116 13 0 800 0 0 empty empty s_length 70 -6 0 10 -262144
-1 -1 2799 1;
#X text 158 65 comment;
#X text 155 70 bang to start note;
#X obj 353 48 loadbang;
#X msg 444 91 194.7;
#X msg 401 93 30.3;
#X msg 370 93 0.06;
#X msg 328 94 85.85;
#X msg 288 92 21.21;
#X connect 0 0 19 0;
#X connect 0 0 21 0;
#X connect 1 0 0 0;
#X connect 2 0 1 0;
#X connect 3 0 7 0;
#X connect 4 0 8 0;
#X connect 5 0 9 0;
#X connect 6 0 10 0;
#X connect 7 0 2 1;
#X connect 8 0 2 2;
#X connect 9 0 2 3;
#X connect 10 0 11 1;
#X connect 11 0 0 0;
#X connect 12 0 15 0;
#X connect 12 0 17 0;
#X connect 12 0 2 0;
#X connect 13 0 11 0;
#X connect 14 0 13 0;
#X connect 15 0 14 0;
#X connect 15 1 16 0;
#X connect 16 0 17 0;
#X connect 17 0 13 1;
#X connect 20 0 21 0;
#X connect 21 0 22 0;
#X connect 23 0 20 0;
#X connect 24 0 17 0;
#X connect 27 0 28 0;
#X connect 27 0 29 0;
#X connect 27 0 30 0;
#X connect 27 0 31 0;
#X connect 27 0 32 0;
#X connect 28 0 17 0;
#X connect 28 0 24 0;
#X connect 29 0 10 0;
#X connect 29 0 6 0;
#X connect 30 0 9 0;
#X connect 30 0 5 0;
#X connect 31 0 8 0;
#X connect 31 0 4 0;
#X connect 32 0 7 0;
#X connect 32 0 3 0;
#X coords 0 -1 1 1 127 155 1 10 10;
#X restore 392 426 pd adsr;
#X obj 279 389 mtof;
#X obj 278 411 osc~;
#X obj 278 433 *~;
#X obj 279 367 spigot;
#X obj 350 321 tgl 15 0 empty empty empty 17 7 0 10 -262144 -1 -1 0
1;
#X obj 222 365 spigot;
#X obj 199 317 tgl 15 0 empty empty empty 17 7 0 10 -262144 -1 -1 0
1;
#X obj 168 635 outlet~;
#X obj 290 637 outlet~;
#X text 375 670 currently not panned. Change it?;
#X obj 190 494 clip~ -0.4 0.4;
#X obj 293 496 clip~ -0.4 0.4;
#X obj 240 547 clip~ -0.5 0.5;
#X obj 541 170 r population;
#X floatatom 541 237 5 0 0 0 - - -;
#X obj 462 158 loadbang;
#X obj 505 274 -;
#X floatatom 505 303 5 0 0 0 - - -;
#X obj 496 187 bng 15 250 50 0 empty empty empty 17 7 0 10 -262144
-1 -1;
#X msg 494 209 25000;
#X obj 413 296 random;
#X obj 84 307 random;
#X obj 494 231 25000;
#X connect 0 0 4 1;
#X connect 2 0 3 0;
#X connect 3 0 4 0;
#X connect 4 0 54 0;
#X connect 5 0 23 1;
#X connect 6 0 7 0;
#X connect 7 0 11 0;
#X connect 7 0 15 0;
#X connect 7 1 10 0;
#X connect 7 1 31 0;
#X connect 8 0 13 0;
#X connect 8 1 14 0;
#X connect 9 0 28 0;
#X connect 9 1 29 0;
#X connect 10 0 9 0;
#X connect 11 0 16 0;
#X connect 11 0 21 0;
#X connect 12 0 11 1;
#X connect 13 0 12 0;
#X connect 14 0 12 0;
#X connect 15 0 8 0;
#X connect 16 0 18 0;
#X connect 17 0 5 0;
#X connect 18 0 17 0;
#X connect 19 0 22 0;
#X connect 20 0 19 0;
#X connect 21 0 20 0;
#X connect 22 0 23 0;
#X connect 23 0 24 0;
#X connect 23 0 49 0;
#X connect 24 0 65 0;
#X connect 25 0 27 0;
#X connect 26 0 0 0;
#X connect 27 0 26 0;
#X connect 27 0 50 0;
#X connect 27 1 50 0;
#X connect 28 0 30 0;
#X connect 29 0 30 0;
#X connect 30 0 31 1;
#X connect 31 0 32 0;
#X connect 31 0 35 0;
#X connect 32 0 33 0;
#X connect 33 0 34 0;
#X connect 34 0 38 0;
#X connect 35 0 36 0;
#X connect 36 0 37 0;
#X connect 37 0 38 1;
#X connect 38 0 39 0;
#X connect 38 0 47 0;
#X connect 39 0 64 0;
#X connect 40 0 41 0;
#X connect 41 0 42 0;
#X connect 41 0 48 0;
#X connect 41 1 48 0;
#X connect 42 0 43 0;
#X connect 43 0 46 1;
#X connect 44 0 45 0;
#X connect 45 0 46 0;
#X connect 46 0 55 0;
#X connect 47 0 44 0;
#X connect 48 0 47 1;
#X connect 49 0 2 0;
#X connect 50 0 49 1;
#X connect 54 0 56 0;
#X connect 55 0 56 0;
#X connect 56 0 51 0;
#X connect 56 0 52 0;
#X connect 57 0 58 0;
#X connect 57 0 62 0;
#X connect 58 0 60 1;
#X connect 59 0 62 0;
#X connect 60 0 61 0;
#X connect 60 0 64 1;
#X connect 60 0 65 1;
#X connect 62 0 63 0;
#X connect 63 0 66 0;
#X connect 64 0 40 0;
#X connect 65 0 25 0;
#X connect 66 0 60 0;
#X restore 213 102 pd BIRTH_NOTES;
#X obj 93 133 knob 32 32 0 1 0 0 empty empty empty 0 -8 0 8 -262144
-1 -1 2700 1;
#X obj 57 199 *~;
#X obj 213 198 *~;
#X obj 245 130 knob 32 32 0 1 0 0 empty empty empty 0 -8 0 8 -262144
-1 -1 1600 1;
#X floatatom 93 178 5 0 0 0 - - -;
#X floatatom 242 172 5 0 0 0 - - -;
#X obj 295 199 *~;
#X obj 138 200 *~;
#X obj 61 265 clip~ -0.5 0.5;
#X obj 221 263 clip~ -0.5 0.5;
#N canvas 1351 355 491 394 SUSTAIN_NOTES 0;
#X obj 190 37 r numborn;
#X obj 271 37 r numdied;
#X obj 190 86 expr $f1 - $f2;
#X floatatom 201 117 5 0 0 0 - - -;
#X obj 131 201 osc~;
#X obj 149 149 *~;
#X obj 39 286 +~;
#X obj 16 311 osc~;
#X obj 34 343 outlet~;
#X obj 30 149 metro 2000;
#X obj 30 117 tgl 15 0 empty empty empty 17 7 0 10 -262144 -1 -1 1
1;
#X obj 248 265 freeverb~;
#X obj 108 316 *~;
#X obj 30 174 counter;
#X obj 30 198 % 5;
#X obj 30 242 expr notes [$f1];
#X floatatom 30 264 5 0 0 0 - - -;
#X floatatom 82 215 5 0 0 0 - - -;
#X connect 0 0 2 0;
#X connect 1 0 2 1;
#X connect 2 0 3 0;
#X connect 3 0 5 1;
#X connect 9 0 13 0;
#X connect 10 0 9 0;
#X connect 13 0 14 0;
#X connect 14 0 15 0;
#X connect 14 0 17 0;
#X connect 15 0 16 0;
#X restore 387 156 pd SUSTAIN_NOTES;
#X connect 7 0 10 0;
#X connect 7 1 16 0;
#X connect 8 0 11 0;
#X connect 8 1 15 0;
#X connect 9 0 13 0;
#X connect 10 0 17 0;
#X connect 11 0 17 0;
#X connect 12 0 14 0;
#X connect 13 0 10 1;
#X connect 13 0 16 1;
#X connect 14 0 11 1;
#X connect 14 0 15 1;
#X connect 15 0 18 0;
#X connect 16 0 18 0;
#X connect 17 0 0 0;
#X connect 18 0 0 1;
